<svg width="210" height="188" viewBox="0 0 210 188" fill="none" xmlns="http://www.w3.org/2000/svg">
<path id="music-note-icon" opacity="0.18" fill-rule="evenodd" clip-rule="evenodd" d="M260.351 16.3279C261.158 17.5744 261.676 18.986 261.866 20.4588C262.057 21.9317 261.915 23.4285 261.451 24.8393L214.765 167.079C212.637 173.552 208.358 179.102 202.638 182.806C196.918 186.509 190.103 188.143 183.326 187.436L155.784 184.564C148.031 183.756 140.916 179.9 136.005 173.845C131.095 167.791 128.791 160.033 129.6 152.28C130.408 144.526 134.264 137.412 140.319 132.501C146.373 127.591 154.131 125.286 161.884 126.095L197.804 129.846C200.065 130.081 202.339 129.534 204.246 128.296C206.154 127.058 207.579 125.204 208.285 123.043L226.306 68.1371L118.362 56.8518L86.5875 153.661C84.4638 160.14 80.1848 165.696 74.463 169.405C68.7411 173.113 61.9217 174.75 55.14 174.042L27.5938 171.142C23.6676 170.855 19.839 169.782 16.3355 167.986C12.832 166.191 9.72491 163.71 7.19881 160.691C4.6727 157.671 2.77908 154.175 1.63035 150.41C0.481622 146.644 0.101216 142.687 0.511742 138.771C0.922263 134.856 2.11533 131.063 4.02011 127.618C5.92488 124.173 8.50253 121.145 11.6 118.716C14.6974 116.286 18.2515 114.504 22.0513 113.474C25.851 112.444 29.8188 112.189 33.7192 112.723L69.5929 116.486C71.8514 116.724 74.1233 116.182 76.0309 114.949C77.9384 113.717 79.3667 111.869 80.0783 109.712L114.371 5.23049C115.079 3.07226 116.505 1.2215 118.411 -0.0139868C120.317 -1.24948 122.589 -1.79524 124.848 -1.56053L253.03 11.8455C254.507 11.9985 255.932 12.4805 257.199 13.2561C258.466 14.0318 259.543 15.0814 260.351 16.3279Z" fill="white"/>
</svg>
